<svg xmlns="http://www.w3.org/2000/svg" data-name="Layer 1" viewBox="0 0 100 125" x="0px" y="0px"><title>55</title><g data-name="Group"><path data-name="Path" d="M26.8,88.7H67a12,12,0,0,0,12-12V46.5a2,2,0,0,0-4,0V76.7a8,8,0,0,1-8,8H26.8a8,8,0,0,1-8-8V27.5a8,8,0,0,1,8-8H51a2,2,0,1,0,0-4H26.8a12,12,0,0,0-12,12V76.7A12,12,0,0,0,26.8,88.7Z"/><path data-name="Compound Path" d="M82.7,13.8h0a8.6,8.6,0,0,0-12.1,0l-28,28a2,2,0,0,0-.5.8L37.3,56.7a2,2,0,0,0,1.9,2.6h.6l14.1-4.8.8-.5,28-28a8.6,8.6,0,0,0,0-12.1Zm-2.8,9.3L52.2,50.8l-9.8,3.4,3.4-9.8L73.4,16.6a4.6,4.6,0,0,1,6.4,6.4Z"/></g><text x="0" y="115" fill="#000000" font-size="5px" font-weight="bold" font-family="'Helvetica Neue', Helvetica, Arial-Unicode, Arial, Sans-serif"></text><text x="0" y="120" fill="#000000" font-size="5px" font-weight="bold" font-family="'Helvetica Neue', Helvetica, Arial-Unicode, Arial, Sans-serif"></text></svg>