<svg xmlns="http://www.w3.org/2000/svg" data-name="Layer 1" viewBox="0 0 100 125" x="0px" y="0px"><title>User Interface</title><path height='120px' width='300px' d="M31.493,13.6a1.235,1.235,0,0,0,1.234-1.234V6.818a1.853,1.853,0,0,1,1.851-1.851H65.422a1.853,1.853,0,0,1,1.851,1.851v5.551a1.234,1.234,0,1,0,2.467,0V6.818A4.323,4.323,0,0,0,65.422,2.5H34.578A4.323,4.323,0,0,0,30.26,6.818v5.551A1.234,1.234,0,0,0,31.493,13.6Z"/><path d="M90.1,16.071H9.9a1.234,1.234,0,0,0,0,2.467H16.45l4.388,74.9A4.322,4.322,0,0,0,25.15,97.5h49.7a4.322,4.322,0,0,0,4.312-4.065l4.388-74.9H90.1a1.234,1.234,0,0,0,0-2.467ZM76.7,93.291a1.852,1.852,0,0,1-1.848,1.742H25.15A1.852,1.852,0,0,1,23.3,93.291l-4.38-74.753H81.078Z"/><path d="M35.722,83.929h.037a1.236,1.236,0,0,0,1.2-1.27l-1.627-55.52a1.262,1.262,0,0,0-1.269-1.2,1.236,1.236,0,0,0-1.2,1.27l1.627,55.519A1.234,1.234,0,0,0,35.722,83.929Z"/><path d="M64.241,83.929h.037a1.234,1.234,0,0,0,1.233-1.2l1.627-55.519a1.236,1.236,0,0,0-1.2-1.27,1.264,1.264,0,0,0-1.269,1.2l-1.627,55.52A1.236,1.236,0,0,0,64.241,83.929Z"/><path d="M50,83.929A1.234,1.234,0,0,0,51.233,82.7V27.175a1.233,1.233,0,1,0-2.466,0V82.7A1.234,1.234,0,0,0,50,83.929Z"/><text x="0" y="115" fill="#000000" font-size="5px" font-weight="bold" font-family="'Helvetica Neue', Helvetica, Arial-Unicode, Arial, Sans-serif"></text><text x="0" y="120" fill="#000000" font-size="5px" font-weight="bold" font-family="'Helvetica Neue', Helvetica, Arial-Unicode, Arial, Sans-serif"></text></svg>